<?xml version="1.0" encoding="iso-8859-1"?>
<!-- Generator: Adobe Illustrator 21.0.0, SVG Export Plug-In . SVG Version: 6.00 Build 0)  -->
<svg version="1.2" baseProfile="tiny" id="Layer_1" xmlns="http://www.w3.org/2000/svg" xmlns:xlink="http://www.w3.org/1999/xlink"
	 x="0px" y="0px" width="475.557px" height="647.689px" viewBox="0 0 475.557 647.689" overflow="scroll" xml:space="preserve">
<g id="beaker">
</g>
<polygon fill="#FFFFFF" points="475.557,646.738 0,646.738 0,592.33 74.391,596.692 111.187,624.027 252.853,639.151 
	387.853,627.164 431.854,596.83 475.557,596.83 "/>
<path fill="#616262" d="M457.826,23.713c-22.2-6.164-120.872-24.664-193.629-24.664c-82.637,0-201.037,11.1-218.303,27.133
	C28.628,42.213,26.16,37.277,12.593,42.213c-13.566,4.935-19.734,20.965,0,29.6c19.734,8.637,55.5,20.969,55.5,78.935
	c0,57.965-4.934,420.949-4.934,444.559c0,23.609,66.601,51.432,203.502,51.432s176.363-35.41,176.363-58.174
	c0-22.764,11.102-513.051,8.637-516.752c-2.471-3.699-2.471-3.699-2.471-3.699s13.563-6.164,19.734-12.332
	c6.164-6.168,6.164-6.168,6.164-6.168S480.025,29.877,457.826,23.713z M426.99,590.248c0,16.859-45.629,43.844-175.129,43.844
	c-129.502,0-172.668-28.668-172.668-42.16c0-13.484,0-389.383,0-441.184c0-37.582-13.959-58.522-29.58-71.177
	c18.532,5.631,89.003,24.31,208.412,24.31c140.594,0,178.836-17.268,178.836-17.268S426.99,573.389,426.99,590.248z"/>
<path fill="#C0D5E1" d="M456.337,29.061C435.105,23.164,336.947,4.6,264.197,4.6C169.871,4.6,63.611,17.303,49.67,30.246
	c-12.373,11.49-18.129,13.26-26.139,14.814c-2.652,0.514-5.397,1.041-9.041,2.369c-5.141,1.869-8.816,5.805-8.938,9.563
	c-0.113,3.613,3.178,7.074,9.266,9.736l3.017,1.305c20.873,8.961,55.809,23.971,55.809,82.715c0,32.752-1.563,151.992-2.941,257.195
	c-1.07,81.596-1.992,177.102-1.992,187.363c0,19.779,61.414,47.639,197.951,47.639c134.834,0,170.814-34.182,170.814-54.381
	c0-7.92,1.309-96.193,2.963-173.668c2.768-129.465,6.922-323.713,5.889-341.078l-5.369-8.055l5.934-2.701
	c3.527-1.605,13.644-6.744,18.109-11.205l4.943-4.947C470.486,42.813,470.226,32.92,456.337,29.061z M426.99,590.248
	c0,16.859-45.629,43.844-175.129,43.844c-129.502,0-172.668-28.668-172.668-42.16c0-13.484,0-389.383,0-441.184
	c0-37.582-13.959-58.522-29.58-71.177c18.532,5.631,89.003,24.31,208.412,24.31c140.594,0,178.836-17.268,178.836-17.268
	S426.99,573.389,426.99,590.248z"/>
<path fill="#AAB4B9" d="M454.855,34.408c-21.057-5.845-118.436-24.259-190.658-24.259c-97.752,0-199.277,13.514-210.752,24.166
	C40.021,46.779,33.302,48.818,24.583,50.51c-2.551,0.49-4.963,0.961-8.195,2.135c-3.465,1.262-5.258,3.58-5.289,4.523
	c-0.014,0.496,1.365,2.475,5.92,4.467l3.006,1.297c8.226,3.533,19.269,8.28,29.588,16.639c18.532,5.631,89.003,24.31,208.412,24.31
	c140.594,0,178.836-17.268,178.836-17.268s-9.871,486.775-9.871,503.635c0,16.859-45.629,43.844-175.129,43.844
	c-129.502,0-172.668-28.668-172.668-42.16c0-13.484,0-389.383,0-441.184c0,32.752-1.561,151.869-2.94,257.268
	c-1.07,81.553-1.994,177.029-1.994,187.291c0,17.676,61.15,43.844,192.402,43.844c130.453,0,165.264-31.797,165.264-50.586
	c0-8.029,1.309-96.33,2.963-173.783c2.695-125.859,6.729-314.574,5.963-339.174l-8.131-12.191l11.873-5.406
	c3.838-1.744,12.908-6.508,16.484-10.076l3.477-3.48C464.517,39.561,461.259,36.186,454.855,34.408z"/>
<path fill="#FFFFFF" d="M37.259,74.281c0,0,12.334-1.232,71.535,9.867c59.199,11.1,292.736,16.34,337.533-10.33l-5.369-8.055
	c0,0-1.596,0.939-5.738,2.393c-14.164,4.979-58.123,15.988-169.795,15.992c-144.297,0-192.398-20.967-210.898-24.668
	c-18.5-3.699-54.268-7.4-13.566-8.631c40.699-1.236,104.117,9.783,104.117,9.783S28.513,45.19,57.992,39.012
	c29.473-6.182,72.352-18.539,192.93-18.539c120.584,0,213.973,17.965,171.502,24.717c-38.857,6.176-84.414,16.99-84.414,16.99
	s95.152-8.867,102.553-6.398c7.4,2.467,3.699,24.668,3.699,24.668S272.826,128.549,37.259,74.281z"/>
<path fill="none" stroke="#D0D0D1" stroke-width="3.7" stroke-miterlimit="10" d="M133.021,60.633
	c96.467,10.814,269.305-1.543,308.154-10.811c38.857-9.268-33.914-23.641-33.914-23.641"/>
<path fill="none" stroke="#1C1C1A" stroke-width="3.7" stroke-miterlimit="10" d="M70.56,73.049
	c81.4,17.264,255.295,24.664,365.066,1.229"/>
<path fill="#FFFFFF" d="M255.327,631.515c-113.469,0-160.604-25.909-166.327-32.265s-9.807-10.426-9.807-12l-0.235,5.08
	c0,0.984,0,1.692,0,2.083c0,13.492,43.166,42.16,172.668,42.16c129.5,0,175.129-26.984,175.129-43.844c0-0.11,0,0,0.001-0.4
	C415.333,602.583,368.79,631.515,255.327,631.515z"/>
</svg>