<?xml version="1.0" encoding="iso-8859-1"?>
<!-- Generator: Adobe Illustrator 21.0.0, SVG Export Plug-In . SVG Version: 6.00 Build 0)  -->
<svg version="1.2" baseProfile="tiny" id="Layer_1" xmlns="http://www.w3.org/2000/svg" xmlns:xlink="http://www.w3.org/1999/xlink"
	 x="0px" y="0px" width="226.066px" height="1158.103px" viewBox="0 0 226.066 1158.103" overflow="scroll" xml:space="preserve">
<g id="bg">
</g>
<g id="markings">
	<polygon fill="#FFFFFF" points="0,1106.3 109.969,1136.75 226.066,1106.3 226.066,1158.102 0,1158.102 	"/>
	<path fill="#D9EFF9" d="M218.249,39.292l-0.446-0.357l0.012-0.015C207.373,29.971,171.269,3,116.121,3
		c-0.83,0-1.662,0.006-2.501,0.019C68.284,3.688,34.431,21.086,14.014,35.564l-0.341,0.241c-2.138,1.514-3.985,2.822-5.419,3.75
		L7.895,39.81L3,43.598v1067.473l3.383,4.229c31.065,35.972,93.046,40.473,107.949,39.716c1.527-0.078,3.411-0.135,5.588-0.201
		l0.377-0.011c20.022-0.6,69.735-5.419,98.846-37.144l3.924-4.185V42.765l-4.802-3.492L218.249,39.292z M110.312,1127.253
		c-13.392,0-24.252-10.857-24.252-24.252c0-8.523,4.415-15.995,11.066-20.314V70.134h27.634V1083.57
		c5.938,4.419,9.803,11.463,9.803,19.431C134.564,1116.396,123.705,1127.253,110.312,1127.253z"/>
	<path fill="#F7FCFE" d="M217.805,43.915c-11.15-9.668-50.568-36.494-104.107-35.705C60.154,9.001,23.717,35.735,11.074,43.915
		l-2.881,2.229v1063.109l2.139,2.678c28.258,32.719,86.445,38.783,103.736,37.898c17.291-0.879,74.271-5.18,104.299-37.898
		L217.805,43.915z M110.312,1127.253c-13.392,0-24.252-10.857-24.252-24.252c0-8.523,4.415-15.995,11.066-20.314V70.134h27.634
		V1083.57c5.938,4.419,9.803,11.463,9.803,19.431C134.564,1116.396,123.705,1127.253,110.312,1127.253z"/>
	<path fill="#B3B3B3" d="M219.872,36.731C209.193,27.554,171.32-0.826,113.576,0.019C67.47,0.699,33.042,18.394,12.28,33.117
		l-0.34,0.241c-2.111,1.495-3.934,2.785-5.316,3.679L0,42.126v1069.996l3.933,4.926l0.198,0.234
		c29.863,34.58,87.391,40.807,106.976,40.807c1.299,0,2.433-0.028,3.379-0.076c1.509-0.077,3.373-0.134,5.525-0.198l0.376-0.012
		c20.402-0.61,71.082-5.547,100.955-38.102l4.725-5.039V41.237L219.872,36.731z M224.567,1114.069l-1.811,1.934l-2.508,2.672
		c-28.981,31.582-77.785,36.967-99.906,37.629c-2.324,0.07-4.328,0.129-5.933,0.211c-17.883,0.914-78.606-4.852-109.143-40.213
		l-0.084-0.094l-0.08-0.1l-2.139-2.678l-1.463-1.834v-2.344V46.144v-3.281l2.596-2.01l2.883-2.23l0.223-0.172l0.238-0.154
		c1.482-0.959,3.44-2.35,5.707-3.955C29.9,22.46,64.768,2.239,113.598,1.519c53.214-0.784,90.326,23.469,105.318,36.372l2.897,2.106
		l2.754,2.004V1114.069z"/>
	<path fill="#B3B3B3" d="M218.915,37.891c0.088,0.076,0.185,0.156,0.272,0.231l-0.445-0.357L218.915,37.891
		C203.923,24.987,166.812,0.734,113.598,1.519C64.768,2.239,29.9,22.46,13.146,34.341c-2.267,1.606-4.225,2.996-5.707,3.955
		L7.201,38.45l-0.223,0.172l-2.883,2.23L1.5,42.862v3.281v1063.109v2.344l1.463,1.834l2.139,2.678l0.08,0.1l0.084,0.094
		c30.537,35.361,91.26,41.127,109.143,40.213c1.605-0.082,3.609-0.141,5.933-0.211c22.121-0.662,70.926-6.047,99.906-37.629
		l2.508-2.672l1.811-1.934V42.001l-2.754-2.004L218.915,37.891z M223.066,1113.477l-3.924,4.185
		c-29.111,31.725-78.824,36.544-98.846,37.144l-0.377,0.011c-2.177,0.066-4.061,0.123-5.588,0.201
		c-14.902,0.757-76.884-3.744-107.949-39.716L3,1111.071V43.598l4.895-3.789l0.359-0.254c1.434-0.928,3.281-2.235,5.419-3.75
		l0.341-0.241C34.431,21.086,68.284,3.688,113.62,3.019C114.459,3.006,115.291,3,116.121,3c55.148,0,91.252,26.971,101.694,35.919
		l-0.012,0.015l0.446,0.357l0.016-0.02l4.802,3.492v1070.714H223.066z"/>
	<path fill="#B3B3B3" d="M219.187,38.122c-0.087-0.075-0.184-0.156-0.272-0.231l-0.173-0.126L219.187,38.122z"/>
	<path fill="none" stroke="#231F20" stroke-width="4.5" stroke-linecap="round" stroke-miterlimit="10" d="M98.014,72.251
		l-0.68,1008.262c-7.99,4.447-13.402,12.967-13.402,22.758c0,14.379,11.658,26.039,26.037,26.039s26.037-11.66,26.037-26.039
		c0-8.801-4.383-16.57-11.07-21.281L124.547,72.251"/>
</g>
<g id="mercury">
</g>
</svg>